<svg id="visual" viewBox="0 0 960 540" width="960" height="540" xmlns="http://www.w3.org/2000/svg" xmlns:xlink="http://www.w3.org/1999/xlink" version="1.1"><g stroke-width="1" stroke-linejoin="bevel"><path d="M434.2 276L395.8 254L394.8 298Z" fill="#161616" stroke="#161616"></path><path d="M394.8 298L446.2 330L434.2 276Z" fill="#161616" stroke="#161616"></path><path d="M458.2 189L382.3 204L395.8 254Z" fill="#181818" stroke="#181818"></path><path d="M395.8 254L338.4 313L394.8 298Z" fill="#101010" stroke="#101010"></path><path d="M332.8 213L338.4 313L395.8 254Z" fill="#121212" stroke="#121212"></path><path d="M394.8 298L350.3 341L446.2 330Z" fill="#161616" stroke="#161616"></path><path d="M338.4 313L350.3 341L394.8 298Z" fill="#151515" stroke="#151515"></path><path d="M382.3 204L332.8 213L395.8 254Z" fill="#131313" stroke="#131313"></path><path d="M484.7 191L458.2 189L434.2 276Z" fill="#161616" stroke="#161616"></path><path d="M434.2 276L458.2 189L395.8 254Z" fill="#181818" stroke="#181818"></path><path d="M382.3 204L330.3 175L332.8 213Z" fill="#161616" stroke="#161616"></path><path d="M395.3 424L493.8 342L446.2 330Z" fill="#111111" stroke="#111111"></path><path d="M446.2 330L493.8 342L434.2 276Z" fill="#121212" stroke="#121212"></path><path d="M524.8 253L484.7 191L434.2 276Z" fill="#151515" stroke="#151515"></path><path d="M452.8 110L426.3 162L458.2 189Z" fill="#121212" stroke="#121212"></path><path d="M458.2 189L426.3 162L382.3 204Z" fill="#181818" stroke="#181818"></path><path d="M521.8 327L524.8 253L434.2 276Z" fill="#171717" stroke="#171717"></path><path d="M493.8 342L521.8 327L434.2 276Z" fill="#131313" stroke="#131313"></path><path d="M271.8 285L287.8 312L338.4 313Z" fill="#151515" stroke="#151515"></path><path d="M338.4 313L287.8 312L350.3 341Z" fill="#181818" stroke="#181818"></path><path d="M426.3 162L330.3 175L382.3 204Z" fill="#171717" stroke="#171717"></path><path d="M275.9 240L271.8 285L338.4 313Z" fill="#151515" stroke="#151515"></path><path d="M275.9 240L338.4 313L332.8 213Z" fill="#141414" stroke="#141414"></path><path d="M274.9 230L275.9 240L332.8 213Z" fill="#121212" stroke="#121212"></path><path d="M330.3 175L274.9 230L332.8 213Z" fill="#161616" stroke="#161616"></path><path d="M275.9 240L241.4 251L271.8 285Z" fill="#111111" stroke="#111111"></path><path d="M298.9 388L395.3 424L350.3 341Z" fill="#141414" stroke="#141414"></path><path d="M350.3 341L395.3 424L446.2 330Z" fill="#181818" stroke="#181818"></path><path d="M553.7 371L561.7 332L521.8 327Z" fill="#151515" stroke="#151515"></path><path d="M279.8 157L258.4 234L274.9 230Z" fill="#171717" stroke="#171717"></path><path d="M274.9 230L258.4 234L275.9 240Z" fill="#171717" stroke="#171717"></path><path d="M234.9 377L298.9 388L287.8 312Z" fill="#111111" stroke="#111111"></path><path d="M287.8 312L298.9 388L350.3 341Z" fill="#101010" stroke="#101010"></path><path d="M227.4 280L287.8 312L271.8 285Z" fill="#171717" stroke="#171717"></path><path d="M553.7 371L521.8 327L493.8 342Z" fill="#171717" stroke="#171717"></path><path d="M521.8 327L572.7 309L524.8 253Z" fill="#191919" stroke="#191919"></path><path d="M184.9 178L249.4 241L258.4 234Z" fill="#101010" stroke="#101010"></path><path d="M258.4 234L249.4 241L275.9 240Z" fill="#101010" stroke="#101010"></path><path d="M561.7 332L572.7 309L521.8 327Z" fill="#161616" stroke="#161616"></path><path d="M536.7 138L452.8 110L484.7 191Z" fill="#161616" stroke="#161616"></path><path d="M249.4 241L241.4 251L275.9 240Z" fill="#101010" stroke="#101010"></path><path d="M484.7 191L452.8 110L458.2 189Z" fill="#101010" stroke="#101010"></path><path d="M426.3 162L337.3 101L330.3 175Z" fill="#131313" stroke="#131313"></path><path d="M536.7 138L484.7 191L524.8 253Z" fill="#121212" stroke="#121212"></path><path d="M300.8 464L391.3 448L395.3 424Z" fill="#171717" stroke="#171717"></path><path d="M556.2 394L553.7 371L493.8 342Z" fill="#191919" stroke="#191919"></path><path d="M561.7 332L587.2 352L572.7 309Z" fill="#191919" stroke="#191919"></path><path d="M556.2 394L493.8 342L514.7 466Z" fill="#171717" stroke="#171717"></path><path d="M305.4 115L279.8 157L330.3 175Z" fill="#141414" stroke="#141414"></path><path d="M330.3 175L279.8 157L274.9 230Z" fill="#141414" stroke="#141414"></path><path d="M249.4 241L228.9 251L241.4 251Z" fill="#141414" stroke="#141414"></path><path d="M228.9 251L227.4 280L241.4 251Z" fill="#101010" stroke="#101010"></path><path d="M241.4 251L227.4 280L271.8 285Z" fill="#141414" stroke="#141414"></path><path d="M184.9 178L228.9 251L249.4 241Z" fill="#111111" stroke="#111111"></path><path d="M583.2 151L536.7 138L524.8 253Z" fill="#161616" stroke="#161616"></path><path d="M514.7 466L493.8 342L395.3 424Z" fill="#121212" stroke="#121212"></path><path d="M553.7 371L587.2 352L561.7 332Z" fill="#191919" stroke="#191919"></path><path d="M452.8 110L337.3 101L426.3 162Z" fill="#151515" stroke="#151515"></path><path d="M337.3 101L305.4 115L330.3 175Z" fill="#141414" stroke="#141414"></path><path d="M556.2 394L587.2 352L553.7 371Z" fill="#181818" stroke="#181818"></path><path d="M632.2 201L583.2 151L524.8 253Z" fill="#121212" stroke="#121212"></path><path d="M336.8 521L425.3 472L391.3 448Z" fill="#171717" stroke="#171717"></path><path d="M391.3 448L425.3 472L395.3 424Z" fill="#161616" stroke="#161616"></path><path d="M227.4 280L234.9 377L287.8 312Z" fill="#141414" stroke="#141414"></path><path d="M298.9 388L300.8 464L395.3 424Z" fill="#151515" stroke="#151515"></path><path d="M305.4 115L256.4 133L279.8 157Z" fill="#181818" stroke="#181818"></path><path d="M279.8 157L184.9 178L258.4 234Z" fill="#161616" stroke="#161616"></path><path d="M267.8 78L256.4 133L305.4 115Z" fill="#101010" stroke="#101010"></path><path d="M640.6 238L524.8 253L572.7 309Z" fill="#191919" stroke="#191919"></path><path d="M536.7 138L508.7 82L452.8 110Z" fill="#101010" stroke="#101010"></path><path d="M248.4 423L300.8 464L298.9 388Z" fill="#121212" stroke="#121212"></path><path d="M234.9 377L248.4 423L298.9 388Z" fill="#101010" stroke="#101010"></path><path d="M425.3 472L514.7 466L395.3 424Z" fill="#161616" stroke="#161616"></path><path d="M556.2 394L587.7 408L587.2 352Z" fill="#151515" stroke="#151515"></path><path d="M566.7 119L508.7 82L536.7 138Z" fill="#171717" stroke="#171717"></path><path d="M452.8 110L434.8 29L337.3 101Z" fill="#171717" stroke="#171717"></path><path d="M564.2 436L587.7 408L556.2 394Z" fill="#171717" stroke="#171717"></path><path d="M514.7 466L564.2 436L556.2 394Z" fill="#171717" stroke="#171717"></path><path d="M583.2 151L566.7 119L536.7 138Z" fill="#151515" stroke="#151515"></path><path d="M547.2 45L492.2 59L508.7 82Z" fill="#161616" stroke="#161616"></path><path d="M508.7 82L492.2 59L452.8 110Z" fill="#121212" stroke="#121212"></path><path d="M657.2 293L572.7 309L587.2 352Z" fill="#181818" stroke="#181818"></path><path d="M657.2 293L640.6 238L572.7 309Z" fill="#101010" stroke="#101010"></path><path d="M615.6 32L558.2 53L566.7 119Z" fill="#161616" stroke="#161616"></path><path d="M640.6 238L632.2 201L524.8 253Z" fill="#141414" stroke="#141414"></path><path d="M455.3 540L487.8 500L425.3 472Z" fill="#111111" stroke="#111111"></path><path d="M425.3 472L487.8 500L514.7 466Z" fill="#171717" stroke="#171717"></path><path d="M514.7 466L563.2 477L564.2 436Z" fill="#101010" stroke="#101010"></path><path d="M160.9 366L202.4 400L234.9 377Z" fill="#151515" stroke="#151515"></path><path d="M234.9 377L202.4 400L248.4 423Z" fill="#191919" stroke="#191919"></path><path d="M314.4 540L336.8 521L300.8 464Z" fill="#121212" stroke="#121212"></path><path d="M160.9 366L234.9 377L227.4 280Z" fill="#131313" stroke="#131313"></path><path d="M335.8 20L267.8 78L337.3 101Z" fill="#121212" stroke="#121212"></path><path d="M337.3 101L267.8 78L305.4 115Z" fill="#171717" stroke="#171717"></path><path d="M256.4 133L184.9 178L279.8 157Z" fill="#121212" stroke="#121212"></path><path d="M179.9 123L184.9 178L256.4 133Z" fill="#111111" stroke="#111111"></path><path d="M228.9 251L152.9 281L227.4 280Z" fill="#181818" stroke="#181818"></path><path d="M492.2 59L434.8 29L452.8 110Z" fill="#141414" stroke="#141414"></path><path d="M695.2 303L657.2 293L722.6 376Z" fill="#171717" stroke="#171717"></path><path d="M640.6 238L669.6 233L632.2 201Z" fill="#151515" stroke="#151515"></path><path d="M657.2 293L659.2 252L640.6 238Z" fill="#111111" stroke="#111111"></path><path d="M564.2 436L636.2 453L587.7 408Z" fill="#121212" stroke="#121212"></path><path d="M722.6 376L657.2 293L587.2 352Z" fill="#121212" stroke="#121212"></path><path d="M518.7 540L563.2 477L514.7 466Z" fill="#181818" stroke="#181818"></path><path d="M486.2 0L470.8 30L492.2 59Z" fill="#171717" stroke="#171717"></path><path d="M492.2 59L470.8 30L434.8 29Z" fill="#111111" stroke="#111111"></path><path d="M220.9 475L300.8 464L248.4 423Z" fill="#181818" stroke="#181818"></path><path d="M300.8 464L336.8 521L391.3 448Z" fill="#171717" stroke="#171717"></path><path d="M184.9 178L152.9 281L228.9 251Z" fill="#121212" stroke="#121212"></path><path d="M152.9 281L160.9 366L227.4 280Z" fill="#171717" stroke="#171717"></path><path d="M314.4 540L351.8 540L336.8 521Z" fill="#141414" stroke="#141414"></path><path d="M695.2 303L669.6 233L659.2 252Z" fill="#191919" stroke="#191919"></path><path d="M659.2 252L669.6 233L640.6 238Z" fill="#181818" stroke="#181818"></path><path d="M662.6 160L566.7 119L583.2 151Z" fill="#111111" stroke="#111111"></path><path d="M351.8 540L431.8 540L425.3 472Z" fill="#151515" stroke="#151515"></path><path d="M487.8 500L518.7 540L514.7 466Z" fill="#171717" stroke="#171717"></path><path d="M381.8 0L335.8 20L337.3 101Z" fill="#111111" stroke="#111111"></path><path d="M381.8 0L337.3 101L434.8 29Z" fill="#171717" stroke="#171717"></path><path d="M431.8 540L455.3 540L425.3 472Z" fill="#161616" stroke="#161616"></path><path d="M662.6 160L583.2 151L632.2 201Z" fill="#171717" stroke="#171717"></path><path d="M566.7 119L558.2 53L508.7 82Z" fill="#171717" stroke="#171717"></path><path d="M558.2 53L547.2 45L508.7 82Z" fill="#151515" stroke="#151515"></path><path d="M220.9 475L248.4 423L202.4 400Z" fill="#121212" stroke="#121212"></path><path d="M336.8 521L351.8 540L425.3 472Z" fill="#171717" stroke="#171717"></path><path d="M351.8 540L443.8 546L431.8 540Z" fill="#111111" stroke="#111111"></path><path d="M431.8 540L443.8 546L455.3 540Z" fill="#171717" stroke="#171717"></path><path d="M175.4 456L220.9 475L202.4 400Z" fill="#181818" stroke="#181818"></path><path d="M267.8 78L179.9 123L256.4 133Z" fill="#161616" stroke="#161616"></path><path d="M184.9 178L109.5 240L152.9 281Z" fill="#111111" stroke="#111111"></path><path d="M159.9 107L179.9 123L193.9 32Z" fill="#111111" stroke="#111111"></path><path d="M458.3 0L434.8 29L470.8 30Z" fill="#171717" stroke="#171717"></path><path d="M458.3 0L381.8 0L434.8 29Z" fill="#111111" stroke="#111111"></path><path d="M679.2 202L662.6 160L632.2 201Z" fill="#181818" stroke="#181818"></path><path d="M226.4 540L314.4 540L300.8 464Z" fill="#101010" stroke="#101010"></path><path d="M351.8 540L225.4 558L443.8 546Z" fill="#121212" stroke="#121212"></path><path d="M443.8 546L503.2 540L455.3 540Z" fill="#131313" stroke="#131313"></path><path d="M455.3 540L503.2 540L487.8 500Z" fill="#111111" stroke="#111111"></path><path d="M706.1 181L679.2 202L754.6 241Z" fill="#101010" stroke="#101010"></path><path d="M669.6 233L679.2 202L632.2 201Z" fill="#111111" stroke="#111111"></path><path d="M486.2 0L458.3 0L470.8 30Z" fill="#111111" stroke="#111111"></path><path d="M381.8 0L354.8 0L335.8 20Z" fill="#171717" stroke="#171717"></path><path d="M335.8 20L315.3 -9L267.8 78Z" fill="#181818" stroke="#181818"></path><path d="M443.8 546L518.7 540L503.2 540Z" fill="#111111" stroke="#111111"></path><path d="M503.2 540L518.7 540L487.8 500Z" fill="#181818" stroke="#181818"></path><path d="M354.8 0L335.4 0L335.8 20Z" fill="#161616" stroke="#161616"></path><path d="M547.2 45L486.2 0L492.2 59Z" fill="#181818" stroke="#181818"></path><path d="M550.7 0L486.2 0L547.2 45Z" fill="#111111" stroke="#111111"></path><path d="M179.9 123L147.4 157L184.9 178Z" fill="#171717" stroke="#171717"></path><path d="M722.6 376L587.2 352L587.7 408Z" fill="#131313" stroke="#131313"></path><path d="M657.2 293L695.2 303L659.2 252Z" fill="#141414" stroke="#141414"></path><path d="M636.2 453L564.2 436L563.2 477Z" fill="#111111" stroke="#111111"></path><path d="M661.6 523L636.2 453L563.2 477Z" fill="#111111" stroke="#111111"></path><path d="M154.9 453L175.4 456L202.4 400Z" fill="#131313" stroke="#131313"></path><path d="M220.9 475L226.4 540L300.8 464Z" fill="#151515" stroke="#151515"></path><path d="M354.8 0L315.3 -9L335.4 0Z" fill="#151515" stroke="#151515"></path><path d="M335.4 0L315.3 -9L335.8 20Z" fill="#161616" stroke="#161616"></path><path d="M381.8 0L315.3 -9L354.8 0Z" fill="#171717" stroke="#171717"></path><path d="M458.3 0L315.3 -9L381.8 0Z" fill="#111111" stroke="#111111"></path><path d="M486.2 0L315.3 -9L458.3 0Z" fill="#191919" stroke="#191919"></path><path d="M193.9 32L179.9 123L267.8 78Z" fill="#141414" stroke="#141414"></path><path d="M179.9 123L159.9 107L147.4 157Z" fill="#111111" stroke="#111111"></path><path d="M99.4 223L184.9 178L147.4 157Z" fill="#111111" stroke="#111111"></path><path d="M99.4 223L109.5 240L184.9 178Z" fill="#131313" stroke="#131313"></path><path d="M152.9 281L104.4 314L160.9 366Z" fill="#151515" stroke="#151515"></path><path d="M160.9 366L154.9 453L202.4 400Z" fill="#131313" stroke="#131313"></path><path d="M100.5 302L104.4 314L152.9 281Z" fill="#101010" stroke="#101010"></path><path d="M104.4 314L113.5 360L160.9 366Z" fill="#151515" stroke="#151515"></path><path d="M113.5 360L120.5 385L160.9 366Z" fill="#131313" stroke="#131313"></path><path d="M120.5 385L154.9 453L160.9 366Z" fill="#131313" stroke="#131313"></path><path d="M209.9 540L226.4 540L220.9 475Z" fill="#111111" stroke="#111111"></path><path d="M104.4 314L90.4 353L113.5 360Z" fill="#131313" stroke="#131313"></path><path d="M109.5 240L100.5 302L152.9 281Z" fill="#121212" stroke="#121212"></path><path d="M615.6 32L550.7 0L558.2 53Z" fill="#121212" stroke="#121212"></path><path d="M558.2 53L550.7 0L547.2 45Z" fill="#161616" stroke="#161616"></path><path d="M486.2 0L550.7 0L315.3 -9Z" fill="#131313" stroke="#131313"></path><path d="M679.2 202L706.1 181L662.6 160Z" fill="#141414" stroke="#141414"></path><path d="M662.6 160L615.6 32L566.7 119Z" fill="#131313" stroke="#131313"></path><path d="M754.6 241L679.2 202L669.6 233Z" fill="#101010" stroke="#101010"></path><path d="M72.9 196L99.4 223L147.4 157Z" fill="#171717" stroke="#171717"></path><path d="M109.5 240L42.5 266L100.5 302Z" fill="#121212" stroke="#121212"></path><path d="M694.2 69L615.6 32L662.6 160Z" fill="#181818" stroke="#181818"></path><path d="M172.9 503L220.9 475L175.4 456Z" fill="#181818" stroke="#181818"></path><path d="M314.4 540L225.4 558L351.8 540Z" fill="#171717" stroke="#171717"></path><path d="M207.4 0L193.9 32L267.8 78Z" fill="#161616" stroke="#161616"></path><path d="M159.9 107L105.4 140L147.4 157Z" fill="#131313" stroke="#131313"></path><path d="M143.9 478L175.4 456L154.9 453Z" fill="#111111" stroke="#111111"></path><path d="M143.9 478L172.9 503L175.4 456Z" fill="#121212" stroke="#121212"></path><path d="M42.5 266L90.4 353L100.5 302Z" fill="#161616" stroke="#161616"></path><path d="M100.5 302L90.4 353L104.4 314Z" fill="#171717" stroke="#171717"></path><path d="M113.5 360L90.4 353L120.5 385Z" fill="#151515" stroke="#151515"></path><path d="M92.4 451L143.9 478L154.9 453Z" fill="#171717" stroke="#171717"></path><path d="M636.2 453L722.6 376L587.7 408Z" fill="#191919" stroke="#191919"></path><path d="M695.2 303L754.6 241L669.6 233Z" fill="#151515" stroke="#151515"></path><path d="M172.9 503L209.9 540L220.9 475Z" fill="#171717" stroke="#171717"></path><path d="M226.4 540L225.4 558L314.4 540Z" fill="#171717" stroke="#171717"></path><path d="M121.9 56L105.4 140L159.9 107Z" fill="#181818" stroke="#181818"></path><path d="M92.4 451L154.9 453L120.5 385Z" fill="#181818" stroke="#181818"></path><path d="M70.9 540L225.4 558L209.9 540Z" fill="#101010" stroke="#101010"></path><path d="M70.9 540L209.9 540L172.9 503Z" fill="#171717" stroke="#171717"></path><path d="M209.9 540L225.4 558L226.4 540Z" fill="#151515" stroke="#151515"></path><path d="M315.3 -9L207.4 0L267.8 78Z" fill="#151515" stroke="#151515"></path><path d="M193.9 32L121.9 56L159.9 107Z" fill="#111111" stroke="#111111"></path><path d="M743.6 408L740.6 366L722.6 376Z" fill="#161616" stroke="#161616"></path><path d="M722.6 376L740.6 366L695.2 303Z" fill="#141414" stroke="#141414"></path><path d="M753.6 129L721.6 132L706.1 181Z" fill="#191919" stroke="#191919"></path><path d="M706.1 181L721.6 132L662.6 160Z" fill="#161616" stroke="#161616"></path><path d="M105.4 140L72.9 196L147.4 157Z" fill="#111111" stroke="#111111"></path><path d="M99.4 223L42.5 266L109.5 240Z" fill="#181818" stroke="#181818"></path><path d="M769.6 258L754.6 241L695.2 303Z" fill="#151515" stroke="#151515"></path><path d="M636.2 453L727.6 416L722.6 376Z" fill="#111111" stroke="#111111"></path><path d="M661.6 523L727.6 416L636.2 453Z" fill="#151515" stroke="#151515"></path><path d="M778.6 381L755.1 334L740.6 366Z" fill="#131313" stroke="#131313"></path><path d="M740.6 366L755.1 334L695.2 303Z" fill="#131313" stroke="#131313"></path><path d="M721.6 132L694.2 69L662.6 160Z" fill="#121212" stroke="#121212"></path><path d="M615.6 32L684.2 0L550.7 0Z" fill="#131313" stroke="#131313"></path><path d="M518.7 540L661.6 523L563.2 477Z" fill="#161616" stroke="#161616"></path><path d="M815.6 433L743.6 408L783.1 507Z" fill="#111111" stroke="#111111"></path><path d="M727.6 416L743.6 408L722.6 376Z" fill="#161616" stroke="#161616"></path><path d="M90.4 353L92.4 451L120.5 385Z" fill="#151515" stroke="#151515"></path><path d="M143.9 478L70.9 540L172.9 503Z" fill="#131313" stroke="#131313"></path><path d="M0 383L92.4 451L90.4 353Z" fill="#171717" stroke="#171717"></path><path d="M315.3 -9L175.9 0L207.4 0Z" fill="#121212" stroke="#121212"></path><path d="M207.4 0L175.9 0L193.9 32Z" fill="#131313" stroke="#131313"></path><path d="M0 219L51.9 216L0 206Z" fill="#151515" stroke="#151515"></path><path d="M123.5 50L121.9 56L193.9 32Z" fill="#171717" stroke="#171717"></path><path d="M755.1 334L769.6 258L695.2 303Z" fill="#181818" stroke="#181818"></path><path d="M753.6 129L735.1 92L721.6 132Z" fill="#101010" stroke="#101010"></path><path d="M812.1 323L769.6 258L755.1 334Z" fill="#181818" stroke="#181818"></path><path d="M51.9 216L72.9 196L0 206Z" fill="#101010" stroke="#101010"></path><path d="M72.9 196L51.9 216L99.4 223Z" fill="#181818" stroke="#181818"></path><path d="M132.4 32L123.5 50L193.9 32Z" fill="#181818" stroke="#181818"></path><path d="M0 206L72.9 196L0 136Z" fill="#171717" stroke="#171717"></path><path d="M51.9 216L42.5 266L99.4 223Z" fill="#161616" stroke="#161616"></path><path d="M175.9 0L132.4 32L193.9 32Z" fill="#181818" stroke="#181818"></path><path d="M518.7 540L674.2 540L661.6 523Z" fill="#181818" stroke="#181818"></path><path d="M661.6 523L720.6 540L727.6 416Z" fill="#171717" stroke="#171717"></path><path d="M821.6 565L674.2 540L518.7 540Z" fill="#171717" stroke="#171717"></path><path d="M720.6 540L674.2 540L821.6 565Z" fill="#131313" stroke="#131313"></path><path d="M753.6 129L706.1 181L808.1 175Z" fill="#171717" stroke="#171717"></path><path d="M721.6 132L735.1 92L694.2 69Z" fill="#121212" stroke="#121212"></path><path d="M804.6 211L706.1 181L754.6 241Z" fill="#171717" stroke="#171717"></path><path d="M780.1 387L778.6 381L743.6 408Z" fill="#121212" stroke="#121212"></path><path d="M743.6 408L778.6 381L740.6 366Z" fill="#181818" stroke="#181818"></path><path d="M806.1 385L780.1 387L815.6 433Z" fill="#101010" stroke="#101010"></path><path d="M873.1 293L804.6 211L769.6 258Z" fill="#161616" stroke="#161616"></path><path d="M690.6 0L684.2 0L694.2 69Z" fill="#171717" stroke="#171717"></path><path d="M694.2 69L684.2 0L615.6 32Z" fill="#151515" stroke="#151515"></path><path d="M550.7 0L684.2 0L315.3 -9Z" fill="#131313" stroke="#131313"></path><path d="M740.6 57L690.6 0L694.2 69Z" fill="#181818" stroke="#181818"></path><path d="M684.2 0L690.6 0L315.3 -9Z" fill="#181818" stroke="#181818"></path><path d="M740.6 57L694.2 69L735.1 92Z" fill="#101010" stroke="#101010"></path><path d="M764.1 86L740.6 57L735.1 92Z" fill="#101010" stroke="#101010"></path><path d="M769.6 258L804.6 211L754.6 241Z" fill="#151515" stroke="#151515"></path><path d="M753.6 129L764.1 86L735.1 92Z" fill="#191919" stroke="#191919"></path><path d="M812.1 323L755.1 334L778.6 381Z" fill="#191919" stroke="#191919"></path><path d="M808.1 175L764.1 86L753.6 129Z" fill="#101010" stroke="#101010"></path><path d="M806.1 385L812.1 323L778.6 381Z" fill="#171717" stroke="#171717"></path><path d="M175.9 0L110.5 0L132.4 32Z" fill="#191919" stroke="#191919"></path><path d="M132.4 32L110.5 0L123.5 50Z" fill="#191919" stroke="#191919"></path><path d="M123.5 50L73.9 0L121.9 56Z" fill="#171717" stroke="#171717"></path><path d="M0 -14L110.5 0L175.9 0Z" fill="#141414" stroke="#141414"></path><path d="M821.6 565L518.7 540L443.8 546Z" fill="#141414" stroke="#141414"></path><path d="M674.2 540L720.6 540L661.6 523Z" fill="#151515" stroke="#151515"></path><path d="M780.1 387L806.1 385L778.6 381Z" fill="#111111" stroke="#111111"></path><path d="M815.6 433L780.1 387L743.6 408Z" fill="#111111" stroke="#111111"></path><path d="M825.1 195L808.1 175L804.6 211Z" fill="#151515" stroke="#151515"></path><path d="M804.6 211L808.1 175L706.1 181Z" fill="#171717" stroke="#171717"></path><path d="M72.9 196L105.4 140L22.5 103Z" fill="#181818" stroke="#181818"></path><path d="M51.9 216L0 219L42.5 266Z" fill="#171717" stroke="#171717"></path><path d="M42.5 266L0 371L90.4 353Z" fill="#171717" stroke="#171717"></path><path d="M22.5 103L105.4 140L121.9 56Z" fill="#101010" stroke="#101010"></path><path d="M0 219L0 371L42.5 266Z" fill="#151515" stroke="#151515"></path><path d="M806.1 385L826.5 326L812.1 323Z" fill="#161616" stroke="#161616"></path><path d="M812.1 323L873.1 293L769.6 258Z" fill="#121212" stroke="#121212"></path><path d="M0 371L0 383L90.4 353Z" fill="#111111" stroke="#111111"></path><path d="M92.4 451L70.9 540L143.9 478Z" fill="#151515" stroke="#151515"></path><path d="M73.9 0L22.5 103L121.9 56Z" fill="#161616" stroke="#161616"></path><path d="M873.1 293L825.1 195L804.6 211Z" fill="#131313" stroke="#131313"></path><path d="M808.1 175L877.1 55L764.1 86Z" fill="#141414" stroke="#141414"></path><path d="M20.5 480L70.9 540L92.4 451Z" fill="#181818" stroke="#181818"></path><path d="M22.5 103L0 136L72.9 196Z" fill="#171717" stroke="#171717"></path><path d="M740.6 57L740.6 0L690.6 0Z" fill="#161616" stroke="#161616"></path><path d="M690.6 0L740.6 0L315.3 -9Z" fill="#161616" stroke="#161616"></path><path d="M748.1 0L740.6 0L740.6 57Z" fill="#161616" stroke="#161616"></path><path d="M748.1 0L740.6 57L764.1 86Z" fill="#161616" stroke="#161616"></path><path d="M110.5 0L73.9 0L123.5 50Z" fill="#161616" stroke="#161616"></path><path d="M22.5 103L0 105L0 136Z" fill="#121212" stroke="#121212"></path><path d="M0 -14L73.9 0L110.5 0Z" fill="#181818" stroke="#181818"></path><path d="M0 383L0 424L92.4 451Z" fill="#101010" stroke="#101010"></path><path d="M783.1 507L743.6 408L727.6 416Z" fill="#161616" stroke="#161616"></path><path d="M806.1 385L844.1 323L826.5 326Z" fill="#171717" stroke="#171717"></path><path d="M869.1 0L748.1 0L764.1 86Z" fill="#101010" stroke="#101010"></path><path d="M740.6 0L748.1 0L315.3 -9Z" fill="#151515" stroke="#151515"></path><path d="M886.1 411L844.1 323L806.1 385Z" fill="#181818" stroke="#181818"></path><path d="M826.5 326L844.1 323L812.1 323Z" fill="#101010" stroke="#101010"></path><path d="M0 452L20.5 480L92.4 451Z" fill="#141414" stroke="#141414"></path><path d="M720.6 540L783.1 507L727.6 416Z" fill="#131313" stroke="#131313"></path><path d="M0 0L0 105L22.5 103Z" fill="#151515" stroke="#151515"></path><path d="M0 105L-23.5 172L0 136Z" fill="#181818" stroke="#181818"></path><path d="M0 136L-23.5 172L0 206Z" fill="#111111" stroke="#111111"></path><path d="M0 206L-23.5 172L0 219Z" fill="#161616" stroke="#161616"></path><path d="M0 219L-23.5 172L0 371Z" fill="#111111" stroke="#111111"></path><path d="M0 371L-23.5 172L0 383Z" fill="#151515" stroke="#151515"></path><path d="M0 383L-23.5 172L0 424Z" fill="#151515" stroke="#151515"></path><path d="M0 424L0 452L92.4 451Z" fill="#111111" stroke="#111111"></path><path d="M-23.5 172L0 452L0 424Z" fill="#111111" stroke="#111111"></path><path d="M0 540L31.5 540L20.5 480Z" fill="#191919" stroke="#191919"></path><path d="M20.5 480L31.5 540L70.9 540Z" fill="#111111" stroke="#111111"></path><path d="M70.9 540L31.5 540L225.4 558Z" fill="#141414" stroke="#141414"></path><path d="M894.1 293L873.1 293L844.1 323Z" fill="#171717" stroke="#171717"></path><path d="M844.1 323L873.1 293L812.1 323Z" fill="#101010" stroke="#101010"></path><path d="M825.1 195L910.5 158L808.1 175Z" fill="#191919" stroke="#191919"></path><path d="M821.6 565L795.1 540L720.6 540Z" fill="#171717" stroke="#171717"></path><path d="M720.6 540L795.1 540L783.1 507Z" fill="#111111" stroke="#111111"></path><path d="M783.1 507L865.5 450L815.6 433Z" fill="#171717" stroke="#171717"></path><path d="M925.1 376L894.1 293L844.1 323Z" fill="#151515" stroke="#151515"></path><path d="M886.1 411L806.1 385L815.6 433Z" fill="#111111" stroke="#111111"></path><path d="M873.1 293L920.5 207L825.1 195Z" fill="#171717" stroke="#171717"></path><path d="M-23.5 172L0 540L0 452Z" fill="#161616" stroke="#161616"></path><path d="M0 452L0 540L20.5 480Z" fill="#181818" stroke="#181818"></path><path d="M31.5 540L0 540L225.4 558Z" fill="#181818" stroke="#181818"></path><path d="M822.1 540L865.5 450L783.1 507Z" fill="#151515" stroke="#151515"></path><path d="M795.1 540L822.1 540L783.1 507Z" fill="#171717" stroke="#171717"></path><path d="M821.6 565L822.1 540L795.1 540Z" fill="#111111" stroke="#111111"></path><path d="M73.9 0L0 0L22.5 103Z" fill="#171717" stroke="#171717"></path><path d="M0 105L0 0L-23.5 172Z" fill="#111111" stroke="#111111"></path><path d="M0 -14L0 0L73.9 0Z" fill="#121212" stroke="#121212"></path><path d="M925.1 376L886.1 411L960 419Z" fill="#171717" stroke="#171717"></path><path d="M865.5 450L886.1 411L815.6 433Z" fill="#111111" stroke="#111111"></path><path d="M315.3 -9L0 -14L175.9 0Z" fill="#131313" stroke="#131313"></path><path d="M0 0L0 -14L-23.5 172Z" fill="#151515" stroke="#151515"></path><path d="M946.5 356L910.1 289L894.1 293Z" fill="#171717" stroke="#171717"></path><path d="M928.5 245L920.5 207L873.1 293Z" fill="#101010" stroke="#101010"></path><path d="M225.4 558L821.6 565L443.8 546Z" fill="#161616" stroke="#161616"></path><path d="M822.1 540L843.6 540L865.5 450Z" fill="#131313" stroke="#131313"></path><path d="M821.6 565L843.6 540L822.1 540Z" fill="#181818" stroke="#181818"></path><path d="M920.5 207L910.5 158L825.1 195Z" fill="#101010" stroke="#101010"></path><path d="M928.5 245L873.1 293L894.1 293Z" fill="#161616" stroke="#161616"></path><path d="M910.5 158L877.1 55L808.1 175Z" fill="#101010" stroke="#101010"></path><path d="M960 350L928.5 245L910.1 289Z" fill="#171717" stroke="#171717"></path><path d="M910.1 289L928.5 245L894.1 293Z" fill="#131313" stroke="#131313"></path><path d="M935.5 70L917.1 64L910.5 158Z" fill="#121212" stroke="#121212"></path><path d="M960 419L886.1 411L960 423Z" fill="#161616" stroke="#161616"></path><path d="M886.1 411L925.1 376L844.1 323Z" fill="#171717" stroke="#171717"></path><path d="M937.5 0L869.1 0L877.1 55Z" fill="#121212" stroke="#121212"></path><path d="M877.1 55L869.1 0L764.1 86Z" fill="#111111" stroke="#111111"></path><path d="M748.1 0L869.1 0L315.3 -9Z" fill="#151515" stroke="#151515"></path><path d="M960 540L895.5 505L960 557Z" fill="#171717" stroke="#171717"></path><path d="M843.6 540L895.5 505L865.5 450Z" fill="#161616" stroke="#161616"></path><path d="M925.1 376L946.5 356L894.1 293Z" fill="#171717" stroke="#171717"></path><path d="M960 350L946.5 356L960 419Z" fill="#181818" stroke="#181818"></path><path d="M960 176L910.5 158L920.5 207Z" fill="#171717" stroke="#171717"></path><path d="M910.5 158L917.1 64L877.1 55Z" fill="#131313" stroke="#131313"></path><path d="M960 202L920.5 207L928.5 245Z" fill="#141414" stroke="#141414"></path><path d="M960 419L946.5 356L925.1 376Z" fill="#131313" stroke="#131313"></path><path d="M946.5 356L960 350L910.1 289Z" fill="#141414" stroke="#141414"></path><path d="M960 350L960 202L928.5 245Z" fill="#141414" stroke="#141414"></path><path d="M960 202L960 176L920.5 207Z" fill="#181818" stroke="#181818"></path><path d="M960 112L935.5 70L910.5 158Z" fill="#121212" stroke="#121212"></path><path d="M917.1 64L937.5 0L877.1 55Z" fill="#161616" stroke="#161616"></path><path d="M960 423L886.1 411L865.5 450Z" fill="#171717" stroke="#171717"></path><path d="M895.5 505L960 423L865.5 450Z" fill="#191919" stroke="#191919"></path><path d="M972.5 123L960 112L910.5 158Z" fill="#151515" stroke="#151515"></path><path d="M960 112L960 101L935.5 70Z" fill="#171717" stroke="#171717"></path><path d="M960 176L972.5 123L910.5 158Z" fill="#191919" stroke="#191919"></path><path d="M960 112L972.5 123L960 101Z" fill="#111111" stroke="#111111"></path><path d="M960 202L972.5 123L960 176Z" fill="#141414" stroke="#141414"></path><path d="M960 350L972.5 123L960 202Z" fill="#181818" stroke="#181818"></path><path d="M966.5 540L972.5 123L960 350Z" fill="#161616" stroke="#161616"></path><path d="M966.5 540L960 350L960 419Z" fill="#101010" stroke="#101010"></path><path d="M972.5 123L960 49L960 101Z" fill="#181818" stroke="#181818"></path><path d="M960 101L960 49L935.5 70Z" fill="#171717" stroke="#171717"></path><path d="M935.5 70L960 49L917.1 64Z" fill="#101010" stroke="#101010"></path><path d="M960 49L937.5 0L917.1 64Z" fill="#131313" stroke="#131313"></path><path d="M869.1 0L937.5 0L315.3 -9Z" fill="#181818" stroke="#181818"></path><path d="M315.3 -9L960 0L0 -14Z" fill="#171717" stroke="#171717"></path><path d="M895.5 505L960 540L960 423Z" fill="#171717" stroke="#171717"></path><path d="M960 423L966.5 540L960 419Z" fill="#101010" stroke="#101010"></path><path d="M960 557L895.5 505L843.6 540Z" fill="#171717" stroke="#171717"></path><path d="M972.5 123L960 0L960 49Z" fill="#161616" stroke="#161616"></path><path d="M960 49L960 0L937.5 0Z" fill="#191919" stroke="#191919"></path><path d="M937.5 0L960 0L315.3 -9Z" fill="#131313" stroke="#131313"></path><path d="M960 557L966.5 540L960 540Z" fill="#101010" stroke="#101010"></path><path d="M960 540L966.5 540L960 423Z" fill="#121212" stroke="#121212"></path><path d="M821.6 565L960 557L843.6 540Z" fill="#161616" stroke="#161616"></path></g></svg>