<?xml version="1.0" encoding="UTF-8" standalone="no"?>
<!-- Created with Inkscape (http://www.inkscape.org/) -->

<svg
   width="166.76973mm"
   height="166.76973mm"
   viewBox="0 0 166.76973 166.76973"
   version="1.1"
   id="svg1"
   xml:space="preserve"
   sodipodi:docname="background.svg"
   inkscape:export-filename="Downloads\zuraif_portfolio_glassy_ios18_RESEND\background.png"
   inkscape:export-xdpi="96"
   inkscape:export-ydpi="96"
   xmlns:inkscape="http://www.inkscape.org/namespaces/inkscape"
   xmlns:sodipodi="http://sodipodi.sourceforge.net/DTD/sodipodi-0.dtd"
   xmlns="http://www.w3.org/2000/svg"
   xmlns:svg="http://www.w3.org/2000/svg"><sodipodi:namedview
     id="namedview1"
     pagecolor="#505050"
     bordercolor="#eeeeee"
     borderopacity="1"
     inkscape:showpageshadow="0"
     inkscape:pageopacity="0"
     inkscape:pagecheckerboard="0"
     inkscape:deskcolor="#505050"
     inkscape:document-units="mm"><inkscape:page
       x="0"
       y="0"
       width="166.76973"
       height="166.76973"
       id="page2"
       margin="0"
       bleed="0" /></sodipodi:namedview><defs
     id="defs1" /><g
     inkscape:label="Layer 1"
     inkscape:groupmode="layer"
     id="layer1"
     transform="translate(-21.615138,-21.615136)"><g
       style="fill:#e8eaed"
       id="g2"
       transform="matrix(0.04534577,0,0,0.04534577,14.359815,117.38208)"><path
         d="m 280,-80 q -50,0 -85,-35 -35,-35 -35,-85 0,-39 22.5,-70 22.5,-31 57.5,-43 v -334 q -35,-12 -57.5,-43 -22.5,-31 -22.5,-70 0,-50 35,-85 35,-35 85,-35 50,0 85,35 35,35 35,85 0,39 -22.5,70 -22.5,31 -57.5,43 v 7 q 0,50 35,85 35,35 85,35 h 80 q 83,0 141.5,58.5 Q 720,-403 720,-320 v 7 q 35,12 57.5,43 22.5,31 22.5,70 0,50 -35,85 -35,35 -85,35 -50,0 -85,-35 -35,-35 -35,-85 0,-39 22.5,-70 22.5,-31 57.5,-43 v -7 q 0,-50 -35,-85 -35,-35 -85,-35 h -80 q -34,0 -64.5,-10.5 Q 345,-461 320,-480 v 167 q 35,12 57.5,43 22.5,31 22.5,70 0,50 -35,85 -35,35 -85,35 z m 0,-80 q 17,0 28.5,-11.5 Q 320,-183 320,-200 320,-217 308.5,-228.5 297,-240 280,-240 q -17,0 -28.5,11.5 -11.5,11.5 -11.5,28.5 0,17 11.5,28.5 11.5,11.5 28.5,11.5 z m 400,0 q 17,0 28.5,-11.5 Q 720,-183 720,-200 720,-217 708.5,-228.5 697,-240 680,-240 q -17,0 -28.5,11.5 -11.5,11.5 -11.5,28.5 0,17 11.5,28.5 Q 663,-160 680,-160 Z M 280,-720 q 17,0 28.5,-11.5 Q 320,-743 320,-760 320,-777 308.5,-788.5 297,-800 280,-800 q -17,0 -28.5,11.5 -11.5,11.5 -11.5,28.5 0,17 11.5,28.5 11.5,11.5 28.5,11.5 z"
         id="path1-4" /></g><g
       style="fill:#e8eaed"
       id="g3"
       transform="matrix(0.04534577,0,0,0.04534577,148.3051,191.83114)"><path
         d="m 226,-559 78,33 q 14,-28 29,-54 15,-26 33,-52 l -56,-11 z m 142,83 114,113 q 42,-16 90,-49 48,-33 90,-75 70,-70 109.5,-155.5 Q 811,-728 806,-800 q -72,-5 -158,34.5 -86,39.5 -156,109.5 -42,42 -75,90 -33,48 -49,90 z m 178,-65 q -23,-23 -23,-56.5 0,-33.5 23,-56.5 23,-23 57,-23 34,0 57,23 23,23 23,56.5 0,33.5 -23,56.5 -23,23 -57,23 -34,0 -57,-23 z m 19,321 84,-84 -11,-56 q -26,18 -52,32.5 -26,14.5 -54,28.5 z m 313,-653 q 19,121 -23.5,235.5 Q 812,-523 708,-419 l 20,99 q 4,20 -2,39 -6,19 -20,33 L 538,-80 454,-277 283,-448 86,-532 253,-700 q 14,-14 33.5,-20 19.5,-6 39.5,-2 l 99,20 q 104,-104 218,-147 114,-43 235,-24 z m -721,552 q 35,-35 85.5,-35.5 50.5,-0.5 85.5,34.5 35,35 34.5,85.5 -0.5,50.5 -35.5,85.5 -25,25 -83.5,43 Q 185,-90 82,-76 96,-179 114,-237.5 132,-296 157,-321 Z m 57,56 q -10,10 -20,36.5 -10,26.5 -14,53.5 27,-4 53.5,-13.5 26.5,-9.5 36.5,-19.5 12,-12 13,-29 1,-17 -11,-29 -12,-12 -29,-11.5 -17,0.5 -29,12.5 z"
         id="path1-0" /></g><g
       style="fill:#e8eaed"
       id="g4"
       transform="matrix(0.04534577,0,0,0.04534577,83.234031,121.32448)"><path
         d="m 0,-160 v -80 h 80 v -600 h 800 v 600 h 80 v 80 z m 400,-80 h 160 v -40 H 400 Z M 160,-360 H 800 V -760 H 160 Z m 320,-200 z"
         id="path1-6" /></g><g
       style="fill:#e8eaed"
       id="g5"
       transform="matrix(0.04534577,0,0,0.04534577,148.48058,125.22428)"><path
         d="m 320,-240 -240,-240 240,-240 57,57 -184,184 183,183 z m 320,0 -57,-57 184,-184 -183,-183 56,-56 240,240 z"
         id="path1-9" /></g><g
       style="fill:#e8eaed"
       id="g6"
       transform="matrix(0.04534577,0,0,0.04534577,84.55063,191.24164)"><path
         d="m 350,-63 q -46,0 -82.5,-24 -36.5,-24 -56.5,-66 -16,21 -40.5,32.5 Q 146,-109 120,-109 69,-109 34.5,-144 0,-179 0,-229 0,-272 28,-306.5 56,-341 99,-346 85,-366 77.5,-388.5 70,-411 70,-436 q 0,-40 20.5,-75 20.5,-35 57.5,-57 5,18 13.5,38.5 8.5,20.5 19.5,35.5 -14,11 -22,26.5 -8,15.5 -8,32.5 0,56 46,69 46,13 87,21 l 19,32 q -11,32 -19,54.5 -8,22.5 -8,40.5 0,30 21.5,52.5 21.5,22.5 52.5,22.5 38,0 63,-34 25,-34 41,-80 16,-46 24.5,-93 8.5,-47 13.5,-72 l 78,21 q -9,45 -22,103 -13,58 -36.5,110.5 Q 488,-135 449.5,-99 411,-63 350,-63 Z M 120,-189 q 17,0 28.5,-11.5 Q 160,-212 160,-229 160,-246 148.5,-257.5 137,-269 120,-269 103,-269 91.5,-257.5 80,-246 80,-229 q 0,17 11.5,28.5 Q 103,-189 120,-189 Z M 404,-347 Q 358,-388 320.5,-423.5 283,-459 256,-492.5 229,-526 214.5,-559.5 200,-593 200,-629 200,-694 244.5,-738.5 289,-783 354,-783 q 4,0 7,0.5 3,0.5 7,0.5 -4,-10 -6,-20 -2,-10 -2,-21 0,-50 35,-85 35,-35 85,-35 50,0 85,35 35,35 35,85 0,11 -2,20.5 -2,9.5 -6,19.5 h 14 q 60,0 102,38.5 42,38.5 50,95.5 -18,-3 -40.5,-3 -22.5,0 -41.5,2 -7,-23 -25.5,-38 -18.5,-15 -44.5,-15 -35,0 -54.5,20.5 Q 532,-662 498,-623 H 461 Q 426,-664 406.5,-683.5 387,-703 354,-703 q -32,0 -53,21 -21,21 -21,53 0,23 13,47.5 13,24.5 36.5,52 23.5,27.5 57,58.5 33.5,31 74.5,67 z m 76,-436 q 17,0 28.5,-11.5 Q 520,-806 520,-823 520,-840 508.5,-851.5 497,-863 480,-863 q -17,0 -28.5,11.5 -11.5,11.5 -11.5,28.5 0,17 11.5,28.5 11.5,11.5 28.5,11.5 z m 129,720 q -22,0 -43.5,-6 -21.5,-6 -41.5,-19 11,-14 22,-33 11,-19 20,-35 11,7 22,10 11,3 22,3 32,0 53.5,-22.5 21.5,-22.5 21.5,-53.5 0,-19 -8,-41 -8,-22 -19,-54 l 19,-32 q 42,-8 87.5,-21 45.5,-13 45.5,-69 0,-40 -29.5,-58 -29.5,-18 -64.5,-18 -42,0 -98,16 -56,16 -131,41 l -21,-78 q 78,-25 139,-42 61,-17 112,-17 69,0 121,41 52,41 52,115 0,25 -7.5,47.5 -7.5,22.5 -21.5,42.5 43,5 71,39.5 28,34.5 28,77.5 0,50 -34.5,85 -34.5,35 -85.5,35 -26,0 -50.5,-11.5 Q 765,-132 749,-153 729,-111 692.5,-87 656,-63 609,-63 Z m 232,-126 q 17,0 28,-11.5 11,-11.5 11,-28.5 0,-17 -11.5,-29 -11.5,-12 -28.5,-12 -17,0 -28.5,11.5 -11.5,11.5 -11.5,28.5 0,17 12,29 12,12 29,12 z m -721,-40 z m 360,-594 z m 360,593 z"
         id="path1-60" /></g><g
       style="fill:#e8eaed"
       id="g7"
       transform="matrix(0.04534577,0,0,0.04534577,17.987476,192.01252)"><path
         d="M 480,-80 Q 397,-80 324,-111.5 251,-143 197,-197 143,-251 111.5,-324 80,-397 80,-480 q 0,-83 31.5,-156 31.5,-73 85.5,-127 54,-54 127,-85.5 73,-31.5 156,-31.5 83,0 156,31.5 73,31.5 127,85.5 54,54 85.5,127 31.5,73 31.5,156 0,83 -31.5,156 -31.5,73 -85.5,127 -54,54 -127,85.5 Q 563,-80 480,-80 Z m -40,-82 v -78 q -33,0 -56.5,-23.5 Q 360,-287 360,-320 v -40 L 168,-552 q -3,18 -5.5,36 -2.5,18 -2.5,36 0,121 79.5,212 79.5,91 200.5,106 z m 276,-102 q 41,-45 62.5,-100.5 Q 800,-420 800,-480 800,-578 745.5,-659 691,-740 600,-776 v 16 q 0,33 -23.5,56.5 Q 553,-680 520,-680 h -80 v 80 q 0,17 -11.5,28.5 Q 417,-560 400,-560 h -80 v 80 h 240 q 17,0 28.5,11.5 11.5,11.5 11.5,28.5 v 120 h 40 q 26,0 47,15.5 21,15.5 29,40.5 z"
         id="path1-8" /></g><g
       style="fill:#e8eaed"
       id="g8"
       transform="matrix(0.04534577,0,0,0.04534577,86.031536,59.705583)"><path
         d="m 390,-120 q -51,0 -88,-35.5 -37,-35.5 -42,-85.5 -60,-8 -100,-53 -40,-45 -40,-106 0,-21 5.5,-41.5 5.5,-20.5 16.5,-38.5 -11,-18 -16.5,-38 -5.5,-20 -5.5,-42 0,-61 40,-105.5 40,-44.5 99,-52.5 3,-51 41,-86.5 38,-35.5 90,-35.5 26,0 48.5,10 22.5,10 41.5,27 18,-17 41,-27 23,-10 49,-10 52,0 89.5,35 37.5,35 40.5,86 59,8 99.5,53 40.5,45 40.5,106 0,22 -5.5,42 -5.5,20 -16.5,38 11,18 16.5,38.5 5.5,20.5 5.5,41.5 0,62 -40.5,106.5 Q 759,-249 699,-241 q -5,50 -41.5,85.5 -36.5,35.5 -87.5,35.5 -25,0 -48.5,-9.5 Q 498,-139 480,-156 q -19,17 -42,26.5 -23,9.5 -48,9.5 z m 130,-590 v 460 q 0,21 14.5,35.5 14.5,14.5 35.5,14.5 20,0 34.5,-16 14.5,-16 15.5,-36 -21,-8 -38.5,-21.5 Q 564,-287 550,-306 q -10,-14 -7.5,-30 2.5,-16 16.5,-26 14,-10 30,-7.5 16,2.5 26,16.5 11,16 28,24.5 17,8.5 37,8.5 33,0 56.5,-23.5 23.5,-23.5 23.5,-56.5 0,-5 -0.5,-10 -0.5,-5 -2.5,-10 -17,10 -36.5,15 -19.5,5 -40.5,5 -17,0 -28.5,-11.5 Q 640,-423 640,-440 q 0,-17 11.5,-28.5 11.5,-11.5 28.5,-11.5 33,0 56.5,-23.5 23.5,-23.5 23.5,-56.5 0,-33 -23.5,-56 -23.5,-23 -56.5,-24 -11,18 -28.5,31.5 -17.5,13.5 -38.5,21.5 -16,6 -31,-1 -15,-7 -20,-23 -5,-16 1.5,-31 6.5,-15 22.5,-20 15,-5 24.5,-18 9.5,-13 9.5,-30 0,-21 -14.5,-35.5 Q 591,-760 570,-760 q -21,0 -35.5,14.5 Q 520,-731 520,-710 Z m -80,460 v -460 q 0,-21 -14.5,-35.5 Q 411,-760 390,-760 q -21,0 -35.5,14.5 -14.5,14.5 -14.5,35.5 0,16 9,29.5 9,13.5 24,18.5 16,5 23,20 7,15 2,31 -6,16 -21,23 -15,7 -31,1 -21,-8 -38.5,-21.5 Q 290,-622 279,-640 q -32,1 -55.5,24.5 -23.5,23.5 -23.5,55.5 0,33 23.5,56.5 23.5,23.5 56.5,23.5 17,0 28.5,11.5 11.5,11.5 11.5,28.5 0,17 -11.5,28.5 -11.5,11.5 -28.5,11.5 -21,0 -40.5,-5 -19.5,-5 -36.5,-15 -2,5 -2.5,10 -0.5,5 -0.5,10 0,33 23.5,56.5 23.5,23.5 56.5,23.5 20,0 37,-8.5 17,-8.5 28,-24.5 10,-14 26,-16.5 16,-2.5 30,7.5 14,10 16.5,26 2.5,16 -7.5,30 -14,19 -32,33 -18,14 -39,22 1,20 16,35.5 15,15.5 35,15.5 21,0 35.5,-14.5 Q 440,-229 440,-250 Z m 40,-230 z"
         id="path1-3" /></g><g
       style="fill:#e8eaed"
       id="g9"
       transform="matrix(0.04534577,0,0,0.04534577,16.173646,59.705583)"><path
         d="m 360,-360 v -240 h 240 v 240 z m 80,-80 h 80 v -80 h -80 z m -80,320 v -80 h -80 q -33,0 -56.5,-23.5 Q 200,-247 200,-280 v -80 h -80 v -80 h 80 v -80 h -80 v -80 h 80 v -80 q 0,-33 23.5,-56.5 Q 247,-760 280,-760 h 80 v -80 h 80 v 80 h 80 v -80 h 80 v 80 h 80 q 33,0 56.5,23.5 23.5,23.5 23.5,56.5 v 80 h 80 v 80 h -80 v 80 h 80 v 80 h -80 v 80 q 0,33 -23.5,56.5 Q 713,-200 680,-200 h -80 v 80 h -80 v -80 h -80 v 80 z M 680,-280 V -680 H 280 v 400 z M 480,-480 Z"
         id="path1-2" /></g><g
       style="fill:#e8eaed"
       id="g10"
       transform="matrix(0.04534577,0,0,0.04534577,146.66676,63.333244)"><path
         d="m 440,-760 v -160 h 80 v 160 z m 266,110 -55,-55 112,-115 56,57 z m 54,210 v -80 h 160 v 80 z M 440,-40 v -160 h 80 v 160 z m -186,-612 -114,-111 57,-56 113,113 z m 508,512 -111,-115 54,-54 114,110 z M 40,-440 v -80 h 160 v 80 z m 157,300 -56,-57 112,-112 29,27 29,28 z m 283,-100 q -100,0 -170,-70 -70,-70 -70,-170 0,-100 70,-170 70,-70 170,-70 100,0 170,70 70,70 70,170 0,100 -70,170 -70,70 -170,70 z m 0,-80 q 66,0 113,-47 47,-47 47,-113 0,-66 -47,-113 -47,-47 -113,-47 -66,0 -113,47 -47,47 -47,113 0,66 47,113 47,47 113,47 z m 0,-160 z"
         id="path1-5" /></g></g></svg>
